<?xml version="1.0" standalone="no"?>
<!DOCTYPE svg PUBLIC "-//W3C//DTD SVG 20010904//EN"
 "http://www.w3.org/TR/2001/REC-SVG-20010904/DTD/svg10.dtd">
<svg version="1.0" xmlns="http://www.w3.org/2000/svg"
 width="128.000000pt" height="128.000000pt" viewBox="0 0 128.000000 128.000000"
 preserveAspectRatio="xMidYMid meet">

<g transform="translate(0.000000,128.000000) scale(0.100000,-0.100000)"
fill="#000000" stroke="none">
<path d="M1050 1269 c-28 -11 -350 -328 -350 -345 0 -5 14 -23 30 -39 16 -16
30 -34 30 -39 0 -6 -171 -182 -380 -391 -259 -259 -380 -387 -380 -401 0 -25
30 -54 56 -54 12 0 162 143 399 380 209 209 384 380 390 380 5 0 31 -21 57
-47 45 -44 47 -49 41 -88 -7 -52 9 -82 51 -100 38 -16 84 -8 100 18 9 14 -2
30 -67 95 l-77 77 151 150 c83 83 157 164 165 182 57 131 -83 274 -216 222z
m151 -66 c32 -31 46 -84 34 -130 -4 -17 -64 -86 -158 -180 l-151 -153 -23 22
c-13 12 -23 27 -23 33 0 20 109 117 211 188 53 36 99 74 103 82 33 86 -43 162
-128 129 -9 -3 -52 -56 -95 -118 -43 -61 -93 -124 -110 -140 -32 -31 -40 -56
-18 -56 7 0 28 16 47 35 26 27 36 32 47 23 12 -9 4 -21 -39 -65 l-52 -53 -53
52 -53 53 137 138 c76 77 152 148 168 159 45 29 117 20 156 -19z m-51 -53 c38
-38 23 -63 -90 -144 -68 -49 -77 -53 -92 -39 -16 14 -14 19 25 76 56 80 101
127 121 127 9 0 25 -9 36 -20z m-707 -732 c-208 -208 -384 -378 -390 -378 -7
0 -13 6 -13 12 0 7 170 183 377 390 301 301 380 375 391 366 11 -9 -62 -87
-365 -390z m607 140 c0 -14 -33 -9 -52 9 -10 9 -18 28 -18 42 l0 25 35 -34
c19 -19 35 -38 35 -42z"/>
</g>
</svg>
